<?xml version="1.0" encoding="UTF-8"?>
<svg width="96px" height="33px" viewBox="0 0 96 33" version="1.1" xmlns="http://www.w3.org/2000/svg" xmlns:xlink="http://www.w3.org/1999/xlink">
    <title>Logo</title>
    <g id="Molecule" stroke="none" stroke-width="1" fill="none" fill-rule="evenodd">
        <g id="Logo/FWD/Logotype/Dark">
            <g id="FWD_01c-No-responders-NoDscpt-REV-SPOT" transform="translate(0.000000, -0.000000)">
                <path d="M77.9416004,15.5125025 C78.1658784,15.7391822 78.2912621,16.0365906 78.2912621,16.3537104 C78.2912621,16.6685111 78.1658784,16.9699778 77.9416004,17.1960778 L71.9826346,23.0132246 C71.7459949,23.2393246 71.4334185,23.3616505 71.1196648,23.3616505 C70.9630823,23.3616505 70.8041451,23.335562 70.6516832,23.270051 C70.198418,23.0856926 69.9029126,22.6532039 69.9029126,22.1725965 L69.9029126,10.5365635 C69.9029126,10.0530574 70.198418,9.62172819 70.6516832,9.43389128 C71.109069,9.25127205 71.6323843,9.35446641 71.9826346,9.69303665 L77.9416004,15.5125025" id="Fill-1" fill="#EE7623"></path>
                <path d="M40.7284475,2.79324347 C40.4317871,3.55183198 40.1025389,4.65388936 39.721038,6.10680814 L39.4193209,7.24980883 L35.7228641,21.9672221 L31.4156688,3.14012427 C31.0482143,1.341462 30.0531657,0.230874765 27.5849282,0.230874765 L1.25575025,0.230874765 C0.0460722688,0.230874765 0.00337114162,1.52513823 0,1.53537406 L0,32.0466685 C0,32.0466685 0.0207887067,32.6938002 0.639955051,32.6938002 L3.08628016,32.6938002 C4.84208308,32.6938002 7.08838712,31.5479563 7.08838712,28.3867917 L7.08838712,19.0920921 L16.3095832,19.0920921 C19.8234365,19.0920921 20.681392,16.551901 20.681392,15.1058061 L20.681392,14.5684252 C20.681392,14.0572025 20.5077782,13.7450097 19.8976016,13.7450097 L7.08838712,13.7450097 L7.08838712,6.04596184 L25.1981599,6.04596184 L30.6633423,27.3461493 C30.8307757,27.9830452 31.7876181,31.3523382 31.7876181,31.3523382 C32.1545107,32.5351449 32.1151807,32.7063107 33.1102293,32.7063107 L35.3228219,32.7063107 C38.0450188,32.7063107 38.9833199,31.0088694 39.4631457,29.8118463 C39.7041823,29.1630086 39.8766724,28.8792487 40.2660393,27.4166627 L45.0850862,9.05586365 L50.1800049,27.3251089 C50.3457527,27.9614362 51.2346104,31.344377 51.2346104,31.344377 C51.6020648,32.5232031 51.5649823,32.7051734 52.5589072,32.7051734 L54.7703761,32.7051734 C57.492573,32.7051734 58.4342452,31.0060261 58.9151947,29.8016104 C59.1511746,29.1533414 59.3888401,28.5335052 59.7798925,27.0720566 L64.789409,6.06529618 L80.3039646,6.06529618 C81.6372511,6.06529618 82.7103979,6.18243953 83.6773537,6.47927852 C84.9297328,6.85914143 86.0422095,7.80823006 86.9703972,9.29469961 C87.8682445,10.7504617 88.3829055,13.2997513 88.4048179,16.4666024 C88.4036942,20.0383374 87.347965,23.2068945 85.3893317,24.9196896 C84.9527689,25.3194555 84.4397935,25.627099 83.832988,25.8534245 C83.2143835,26.0860052 82.6148822,26.2315814 82.0468448,26.2878785 C81.4366682,26.3544113 80.6264705,26.4789472 79.5645609,26.4869084 L79.5488289,26.4869084 L76.1658883,26.4931637 L71.304702,26.4931637 C71.2957123,26.4880458 71.2855989,26.4880458 71.2805422,26.4880458 C70.2298697,26.4880458 70.1939109,27.1056073 70.1939109,27.3694642 L70.1939109,28.6472366 C70.1939109,30.5061765 71.7114865,32.6414838 74.7556273,32.6414838 L74.8623802,32.6414838 L80.7669347,32.6397778 C82.2693402,32.6227181 83.617235,32.51183 84.8263511,32.3031328 C86.0422095,32.0898864 87.1855884,31.7367504 88.2491836,31.2232531 C89.3144643,30.7171483 90.2977139,30.0472703 91.1933139,29.2187369 C92.3226463,28.1462497 93.2463392,26.9321669 93.9666397,25.5770571 C94.6785125,24.2179668 95.2032869,22.707045 95.5336587,21.0414485 C95.8426801,19.4708177 96,18.3511319 96,16.4876427 L96,16.4495427 C95.9471854,10.4126794 94.1835165,6.12273054 90.670787,3.12533919 C89.3245777,1.94935639 87.8070021,1.14470666 86.1399726,0.72276312 C84.5858763,0.328115122 82.7564701,0.133634409 80.6629912,0.133634409 L61.8694385,0.133634409 C60.8367454,0.143870236 59.2916389,0.684094441 58.6977561,3.14012427 L54.6186747,21.8466668 L50.2839484,7.17815804 L50.2839484,7.18896252 L49.9945921,6.10680814 C49.5765706,4.54413855 49.2383327,3.42160952 48.9883064,2.74433896 C48.7371563,2.06706841 48.2916038,1.43927101 47.6404116,0.860946786 C46.9976472,0.2860345 46.0880008,0 44.9204621,0 C43.7613513,0 42.8539523,0.274092702 42.1819714,0.825690048 C41.5071812,1.37785605 41.0256698,2.03124301 40.7284475,2.79324347 Z" id="Fill-2" fill="#183028"></path>
            </g>
        </g>
    </g>
</svg>